<svg width="716.8" height="173.2" version="1.1" viewBox="0 0 716.8 173.2" xmlns="http://www.w3.org/2000/svg"><g transform="matrix(1.333 0 0 -1.333 0 173.2)"><g transform="scale(.1)"><g fill="#231f20"><path d="m210.6 612.2c13.58 0 26.66 0.996 39.25 3.02 12.58 2 23.65 5.906 33.21 11.7 9.551 5.781 17.24 13.96 23.03 24.53 5.769 10.57 8.679 24.4 8.679 41.51s-2.91 30.96-8.679 41.52c-5.789 10.57-13.48 18.74-23.03 24.53-9.558 5.781-20.63 9.679-33.21 11.7-12.59 2.004-25.67 3.019-39.25 3.019h-92.09v-161.5zm32.45 253.6c33.71 0 62.39-4.902 86.05-14.72 23.66-9.812 42.9-22.77 57.75-38.88 14.84-16.11 25.66-34.47 32.46-55.1 6.797-20.64 10.19-42.03 10.19-64.17 0-21.64-3.391-42.9-10.19-63.78-6.796-20.89-17.62-39.39-32.46-55.48-14.84-16.11-34.09-29.06-57.75-38.88-23.66-9.816-52.34-14.72-86.05-14.72h-124.5v-193.2h-118.5v539h243.1"/><path d="m599.3 865.8v-203h2.266c13.59 22.64 30.95 39.12 52.09 49.44 21.13 10.3 41.76 15.47 61.9 15.47 28.68 0 52.2-3.906 70.57-11.7 18.36-7.812 32.83-18.62 43.4-32.46 10.57-13.85 17.99-30.69 22.27-50.57 4.269-19.88 6.418-41.89 6.418-66.05v-240h-107.2v220.4c0 32.21-5.04 56.24-15.09 72.09-10.08 15.85-27.93 23.78-53.6 23.78-29.19 0-50.33-8.683-63.41-26.05-13.1-17.36-19.63-45.93-19.63-85.67v-204.6h-107.2v539h107.2"/><path d="m1084 210.6c-20.64-13.59-49.33-20.38-86.05-20.38-11.08 0-22.02 0.379-32.84 1.129-10.83 0.762-21.77 1.641-32.83 2.652v88.32c10.05-1.012 20.38-2.012 30.94-3.031 10.57-1 21.13-1.25 31.7-0.75 14.09 1.511 24.53 7.05 31.33 16.61 6.8 9.562 10.2 20.13 10.2 31.7 0 8.555-1.52 16.61-4.53 24.15l-136.6 366.1h114l88.32-267.2h1.5l85.31 267.2h111l-163-438.6c-11.59-31.7-27.68-54.35-48.31-67.94"/><path d="m1422 423.8c4.77-8.312 10.95-15.1 18.49-20.38 7.55-5.293 16.24-9.187 26.05-11.71 9.8-2.519 20-3.769 30.57-3.769 7.54 0 15.47 0.867 23.78 2.636 8.3 1.758 15.84 4.532 22.64 8.309 6.79 3.77 12.45 8.801 16.98 15.1 4.54 6.281 6.8 14.21 6.8 23.77 0 16.11-10.7 28.18-32.09 36.24-21.39 8.036-51.21 16.09-89.44 24.15-15.61 3.515-30.83 7.668-45.68 12.46-14.84 4.777-28.05 11.05-39.62 18.87-11.59 7.793-20.88 17.61-27.92 29.43-7.07 11.83-10.58 26.3-10.58 43.41 0 25.16 4.91 45.78 14.73 61.89 9.8 16.1 22.76 28.81 38.86 38.12 16.11 9.305 34.22 15.85 54.36 19.62 20.12 3.782 40.76 5.664 61.89 5.664 21.14 0 41.63-2.011 61.53-6.035 19.87-4.031 37.6-10.83 53.21-20.38 15.59-9.57 28.55-22.28 38.88-38.12 10.3-15.85 16.47-35.85 18.48-60.01h-101.9c-1.51 20.64-9.32 34.6-23.4 41.89-14.09 7.297-30.69 10.95-49.81 10.95-6.05 0-12.59-0.382-19.63-1.132-7.05-0.754-13.47-2.395-19.25-4.903-5.79-2.531-10.7-6.172-14.72-10.95-4.03-4.793-6.04-11.21-6.04-19.25 0-9.57 3.51-17.36 10.57-23.4 7.04-6.047 16.22-10.95 27.55-14.73 11.32-3.77 24.27-7.168 38.88-10.19 14.59-3.015 29.43-6.296 44.53-9.812 15.6-3.527 30.82-7.813 45.66-12.83 14.85-5.039 28.05-11.7 39.63-20 11.58-8.313 20.88-18.62 27.93-30.95 7.04-12.34 10.58-27.56 10.58-45.67 0-25.66-5.17-47.18-15.48-64.54-10.32-17.35-23.78-31.32-40.38-41.9-16.61-10.57-35.62-18-56.99-22.26-21.4-4.266-43.16-6.414-65.3-6.414-22.64 0-44.79 2.265-66.42 6.797-21.65 4.531-40.9 12.08-57.75 22.64-16.87 10.57-30.7 24.53-41.52 41.9-10.82 17.36-16.74 39.12-17.73 65.29h101.9c0-11.58 2.38-21.51 7.17-29.81"/><path d="m1847 717.1v-390.3h-107.2v390.3zm-107.2 60.39v88.31h107.2v-88.31h-107.2"/><path d="m2031 475.9c3.02-14.85 8.17-28.19 15.47-40.01 7.29-11.83 16.98-21.26 29.06-28.3 12.08-7.063 27.18-10.57 45.29-10.57 18.12 0 33.33 3.504 45.67 10.57 12.32 7.039 22.14 16.47 29.44 28.3 7.29 11.82 12.45 25.16 15.47 40.01 3.03 14.84 4.53 30.06 4.53 45.66 0 15.6-1.5 30.95-4.53 46.05-3.02 15.1-8.18 28.43-15.47 40.01-7.3 11.57-17.12 21.01-29.44 28.31-12.34 7.286-27.55 10.94-45.67 10.94-18.11 0-33.21-3.652-45.29-10.94-12.08-7.304-21.77-16.74-29.06-28.31-7.3-11.58-12.45-24.91-15.47-40.01s-4.53-30.45-4.53-46.05c0-15.6 1.51-30.83 4.53-45.66zm-97.37 130.6c9.55 25.41 23.13 47.05 40.76 64.92 17.61 17.85 38.74 31.7 63.4 41.52 24.66 9.812 52.33 14.71 83.03 14.71s58.5-4.902 83.41-14.71c24.91-9.817 46.16-23.66 63.79-41.52 17.61-17.87 31.19-39.51 40.76-64.92 9.55-25.42 14.34-53.72 14.34-84.92 0-31.2-4.79-59.38-14.34-84.54-9.57-25.17-23.15-46.68-40.76-64.54-17.63-17.86-38.88-31.58-63.79-41.13-24.91-9.558-52.71-14.34-83.41-14.34s-58.37 4.785-83.03 14.34c-24.66 9.551-45.79 23.27-63.4 41.13-17.63 17.86-31.21 39.38-40.76 64.54-9.57 25.16-14.35 53.34-14.35 84.54 0 31.2 4.78 59.5 14.35 84.92"/><path d="m2522 865.8 225-361.6h1.51v361.6h111v-539h-118.5l-224.2 360.8h-1.51v-360.8h-111v539h117.8"/><path d="m3188 625.7c-12.83 14.08-32.34 21.13-58.5 21.13-17.12 0-31.33-2.902-42.65-8.672-11.32-5.793-20.38-12.97-27.17-21.52-6.8-8.562-11.59-17.62-14.35-27.18-2.77-9.571-4.4-18.12-4.9-25.66h174.4c-5.03 27.18-13.96 47.8-26.79 61.89zm-121.2-205.3c16.11-15.61 39.26-23.4 69.45-23.4 21.63 0 40.25 5.399 55.86 16.22 15.59 10.82 25.15 22.28 28.69 34.35h94.35c-15.09-46.8-38.25-80.27-69.45-100.4-31.2-20.14-68.94-30.2-113.2-30.2-30.7 0-58.38 4.91-83.04 14.71-24.66 9.817-45.55 23.78-62.64 41.9-17.12 18.12-30.33 39.75-39.63 64.92-9.32 25.16-13.97 52.83-13.97 83.03 0 29.18 4.78 56.36 14.34 81.52 9.56 25.16 23.14 46.92 40.76 65.29 17.62 18.37 38.62 32.84 63.04 43.41 24.39 10.57 51.44 15.85 81.14 15.85 33.21 0 62.15-6.414 86.81-19.25 24.64-12.83 44.91-30.08 60.76-51.71 15.85-21.64 27.29-46.3 34.34-73.97 7.04-27.68 9.55-56.61 7.55-86.81h-281.6c1.5-34.72 10.3-59.89 26.41-75.48"/><path d="m3600 717.1v-71.71h-78.51v-193.2c0-18.12 3.03-30.2 9.06-36.23 6.04-6.035 18.12-9.062 36.23-9.062 6.05 0 11.82 0.254 17.37 0.762 5.52 0.488 10.82 1.25 15.85 2.265v-83.04c-9.06-1.512-19.14-2.508-30.2-3.015-11.07-0.5-21.88-0.754-32.45-0.754-16.61 0-32.35 1.125-47.18 3.39-14.85 2.266-27.93 6.668-39.26 13.21-11.32 6.535-20.26 15.85-26.79 27.93-6.55 12.08-9.82 27.93-9.82 47.56v230.2h-64.91v71.71h64.91v117h107.2v-117h78.51"/><path d="m4871 1058c0-33.57-27.37-60.79-61.14-60.79s-61.15 27.22-61.15 60.79c0 33.58 27.38 60.79 61.15 60.79s61.14-27.21 61.14-60.79"/><path d="m4370 60.79c0-30.52-24.89-55.27-55.59-55.27s-55.58 24.75-55.58 55.27c0 30.52 24.88 55.26 55.58 55.26s55.59-24.74 55.59-55.26"/><path d="m4314 314.5c0-30.52-24.88-55.26-55.58-55.26s-55.59 24.74-55.59 55.26c0 30.52 24.89 55.26 55.59 55.26s55.58-24.74 55.58-55.26"/><path d="m4041 314.5c0-27.47-22.4-49.73-50.03-49.73s-50.03 22.26-50.03 49.73c0 27.46 22.4 49.74 50.03 49.74s50.03-22.27 50.03-49.74"/><path d="m5376 565c0-27.47-22.4-49.73-50.03-49.73s-50.03 22.26-50.03 49.73 22.4 49.74 50.03 49.74 50.03-22.27 50.03-49.74"/><path d="m3969 565c0-27.47-22.4-49.73-50.03-49.73s-50.03 22.26-50.03 49.73 22.4 49.74 50.03 49.74 50.03-22.27 50.03-49.74"/><path d="m5092 1037c0-27.46-22.4-49.73-50.03-49.73s-50.02 22.27-50.02 49.73c0 27.47 22.39 49.74 50.02 49.74s50.03-22.27 50.03-49.74"/><path d="m4242 565c0-30.52-24.89-55.26-55.59-55.26s-55.59 24.74-55.59 55.26c0 30.52 24.89 55.26 55.59 55.26s55.59-24.74 55.59-55.26"/><path d="m5250 832.7c0-30.52-24.89-55.26-55.59-55.26s-55.58 24.74-55.58 55.26c0 30.52 24.88 55.26 55.58 55.26s55.59-24.74 55.59-55.26"/><path d="m4096 832.7c0-30.52-24.89-55.26-55.59-55.26s-55.59 24.74-55.59 55.26c0 30.52 24.89 55.26 55.59 55.26s55.59-24.74 55.59-55.26"/><path d="m4694 60.79c0-33.58-27.37-60.79-61.14-60.79s-61.15 27.21-61.15 60.79c0 33.57 27.38 60.78 61.15 60.78s61.14-27.21 61.14-60.78"/><path d="m4648 314.5c0-33.57-27.38-60.79-61.15-60.79s-61.14 27.22-61.14 60.79c0 33.57 27.37 60.79 61.14 60.79s61.15-27.22 61.15-60.79"/><path d="m4559 565c0-33.57-27.38-60.79-61.15-60.79s-61.15 27.22-61.15 60.79c0 33.57 27.38 60.79 61.15 60.79s61.15-27.22 61.15-60.79"/><path d="m4405 832.7c0-33.57-27.37-60.79-61.14-60.79s-61.15 27.22-61.15 60.79 27.38 60.78 61.15 60.78 61.14-27.22 61.14-60.78"/><path d="m4274 1058c0-33.57-27.38-60.79-61.15-60.79s-61.14 27.22-61.14 60.79c0 33.58 27.37 60.79 61.14 60.79s61.15-27.21 61.15-60.79"/><path d="m5158 565c0-33.57-27.38-60.79-61.15-60.79s-61.14 27.22-61.14 60.79c0 33.57 27.37 60.79 61.14 60.79s61.15-27.22 61.15-60.79"/><path d="m5178 60.79c0-33.58-27.38-60.79-61.15-60.79s-61.14 27.21-61.14 60.79c0 33.57 27.37 60.78 61.14 60.78s61.15-27.21 61.15-60.78"/><path d="m5255 314.5c0-33.57-27.38-60.79-61.15-60.79s-61.14 27.22-61.14 60.79c0 33.57 27.37 60.79 61.14 60.79s61.15-27.22 61.15-60.79"/><path d="m5025 838.2c0-33.57-27.37-60.79-61.14-60.79s-61.15 27.22-61.15 60.79c0 33.57 27.38 60.79 61.15 60.79s61.14-27.22 61.14-60.79"/></g><g fill="none" stroke="#231f20" stroke-miterlimit="10" stroke-width="22.22"><path d="m5097 565 97.14-250.5"/><path d="m4964 838.2 133.4-273.2"/><path d="m4810 1058 153.9-219.9"/><path d="m4213 1058 135-234.8"/><path d="m4348 823.3 150-258.2"/><path d="m4498 565 88.51-250.5"/><path d="m4586 314.5 46.26-254.9"/><path d="m4879 401.5s-6.28-335 148-340.8c21.25-0.8008 89.75 0 89.75 0"/><path d="m4833 653.7s18.64-269.7 146.5-321.3c85.62-34.56 214.7-17.95 214.7-17.95"/><path d="m4757 874.5s-5.7-281.1 135.2-302.9c84.71-13.11 185.8-6.528 185.8-6.528"/><path d="m4615 1106s-11.59-237.5 111.8-263.8c83.84-17.87 222.4-9.617 222.4-9.617"/><path d="m4416 1230s-4.47-150.6 140.4-168.8c85.28-10.74 231.4-2.98 231.4-2.98"/><path d="m4314 60.79 318.6-1.199"/><path d="m4833 653.7s30.54-264.5-95.99-321.4c-52.25-23.46-150.5-17.86-150.5-17.86"/><path d="m4757 874.5s13.11-198.6-76.9-280.4c-42.21-38.33-182.1-29.07-182.1-29.07"/><path d="m4615 1106s9.58-159.1-79.74-244.5c-36.65-35.04-191.3-28.85-191.3-28.85"/><path d="m4879 401.5s23.66-219.4-65.86-297.2c-55.91-48.62-180.7-44.74-180.7-44.74"/><path d="m4259 314.5h327.9"/><path d="m4187 565h311.3"/><path d="m5078 565h259.6"/><path d="m4964 838.2 230.6-5.527"/><path d="m4788 1058 253.7-21.15"/><path d="m4041 832.7 303.1-0.019"/><path d="m4416 1230s9.04-105.5-46.27-145.8c-46.26-33.77-156.8-25.98-156.8-25.98"/><path d="m3919 565h267.3"/><path d="m4013 314.5h245.7"/><path d="m4259 314.5 55.58-253.7"/><path d="m4187 565 71.91-250.5"/><path d="m4041 832.7 146-267.6"/><path d="m5042 1037 152.7-204.3"/><path d="m5194 832.7 131.9-279.1"/><path d="m3919 565 71.3-250.5"/></g><g fill="#da1259"><path d="m4485 1230c0-38.15-31.11-69.07-69.48-69.07-38.38 0-69.49 30.92-69.49 69.07s31.11 69.08 69.49 69.08c38.37 0 69.48-30.93 69.48-69.08"/><path d="m4949 401.5c0-38.15-31.11-69.08-69.48-69.08-38.38 0-69.48 30.93-69.48 69.08 0 38.15 31.1 69.07 69.48 69.07 38.37 0 69.48-30.93 69.48-69.07"/><path d="m4902 653.7c0-38.15-31.11-69.08-69.49-69.08-38.37 0-69.48 30.93-69.48 69.08 0 38.15 31.11 69.08 69.48 69.08 38.38 0 69.49-30.93 69.49-69.08"/><path d="m4826 874.5c0-38.15-31.11-69.07-69.48-69.07-38.38 0-69.49 30.93-69.49 69.07 0 38.15 31.11 69.08 69.49 69.08 38.37 0 69.48-30.93 69.48-69.08"/><path d="m4684 1106c0-38.15-31.11-69.08-69.48-69.08-38.38 0-69.49 30.93-69.49 69.08s31.11 69.08 69.49 69.08c38.37 0 69.48-30.93 69.48-69.08"/></g></g></g></svg>
